<svg width="32" height="32" viewBox="0 0 32 32" fill="none" xmlns="http://www.w3.org/2000/svg">
<path d="M12 10.3333C12 6.66668 8.56001 4.32002 8.41334 4.22668C8.19285 4.07765 7.93281 3.99801 7.66668 3.99801C7.40054 3.99801 7.1405 4.07765 6.92001 4.22668C6.77334 4.33335 3.33334 6.66668 3.33334 10.3333C3.33334 11.4826 3.78989 12.5848 4.60255 13.3975C5.4152 14.2101 6.51741 14.6667 7.66668 14.6667C8.81595 14.6667 9.91815 14.2101 10.7308 13.3975C11.5435 12.5848 12 11.4826 12 10.3333ZM7.66668 12C7.22465 12 6.80073 11.8244 6.48817 11.5119C6.1756 11.1993 6.00001 10.7754 6.00001 10.3333C6.10973 9.06919 6.70754 7.89747 7.66668 7.06668C8.63153 7.89298 9.23062 9.06719 9.33334 10.3333C9.33334 10.7754 9.15775 11.1993 8.84519 11.5119C8.53263 11.8244 8.1087 12 7.66668 12ZM15.7467 13.56C15.5262 13.411 15.2661 13.3313 15 13.3313C14.7339 13.3313 14.4738 13.411 14.2533 13.56C14.0267 13.72 8.66668 17.4267 8.66668 23C8.66668 24.6797 9.33394 26.2906 10.5217 27.4784C11.7094 28.6661 13.3203 29.3333 15 29.3333C16.6797 29.3333 18.2906 28.6661 19.4784 27.4784C20.6661 26.2906 21.3333 24.6797 21.3333 23C21.3333 17.3333 16 13.7067 15.7467 13.56ZM15 26.6667C14.5185 26.6667 14.0417 26.5718 13.5968 26.3876C13.152 26.2033 12.7478 25.9332 12.4073 25.5927C12.0668 25.2523 11.7967 24.848 11.6125 24.4032C11.4282 23.9583 11.3333 23.4815 11.3333 23C11.3333 19.92 13.7467 17.44 15.0133 16.3333C16.2667 17.3867 18.6667 19.84 18.6667 23C18.6667 23.4815 18.5718 23.9583 18.3876 24.4032C18.2033 24.848 17.9332 25.2523 17.5927 25.5927C17.2523 25.9332 16.848 26.2033 16.4032 26.3876C15.9583 26.5718 15.4815 26.6667 15 26.6667ZM24.08 2.89335C23.8595 2.74431 23.5995 2.66467 23.3333 2.66467C23.0672 2.66467 22.8072 2.74431 22.5867 2.89335C22.4 3.02668 18 6.06668 18 10.6667C18 12.0812 18.5619 13.4377 19.5621 14.4379C20.5623 15.4381 21.9189 16 23.3333 16C24.7478 16 26.1044 15.4381 27.1046 14.4379C28.1048 13.4377 28.6667 12.0812 28.6667 10.6667C28.6667 6.01335 24.2667 3.01335 24.08 2.89335ZM23.3333 13.3333C22.6261 13.3333 21.9478 13.0524 21.4477 12.5523C20.9476 12.0522 20.6667 11.3739 20.6667 10.6667C20.7581 9.70391 21.041 8.76912 21.499 7.91732C21.957 7.06552 22.5806 6.31391 23.3333 5.70668C24.0889 6.31132 24.7145 7.0623 25.1727 7.91461C25.631 8.76692 25.9123 9.70298 26 10.6667C26 11.3739 25.7191 12.0522 25.219 12.5523C24.7189 13.0524 24.0406 13.3333 23.3333 13.3333Z" fill="black"/>
</svg>
