<svg width="54" height="54" viewBox="0 0 54 54" fill="none" xmlns="http://www.w3.org/2000/svg">
<path d="M27 42.75C26.4033 42.75 25.831 42.9871 25.409 43.409C24.9871 43.831 24.75 44.4033 24.75 45V47.25C24.75 47.8467 24.9871 48.419 25.409 48.841C25.831 49.263 26.4033 49.5 27 49.5C27.5968 49.5 28.1691 49.263 28.591 48.841C29.013 48.419 29.25 47.8467 29.25 47.25V45C29.25 44.4033 29.013 43.831 28.591 43.409C28.1691 42.9871 27.5968 42.75 27 42.75ZM18 24.75C17.4033 24.75 16.831 24.9871 16.409 25.409C15.9871 25.831 15.75 26.4033 15.75 27V29.25C15.75 29.8467 15.9871 30.419 16.409 30.841C16.831 31.263 17.4033 31.5 18 31.5C18.5968 31.5 19.169 31.263 19.591 30.841C20.013 30.419 20.25 29.8467 20.25 29.25V27C20.25 26.4033 20.013 25.831 19.591 25.409C19.169 24.9871 18.5968 24.75 18 24.75ZM18 36C17.4033 36 16.831 36.2371 16.409 36.659C15.9871 37.081 15.75 37.6533 15.75 38.25V40.5C15.75 41.0967 15.9871 41.669 16.409 42.091C16.831 42.513 17.4033 42.75 18 42.75C18.5968 42.75 19.169 42.513 19.591 42.091C20.013 41.669 20.25 41.0967 20.25 40.5V38.25C20.25 37.6533 20.013 37.081 19.591 36.659C19.169 36.2371 18.5968 36 18 36ZM27 31.5C26.4033 31.5 25.831 31.7371 25.409 32.159C24.9871 32.581 24.75 33.1533 24.75 33.75V36C24.75 36.5967 24.9871 37.169 25.409 37.591C25.831 38.013 26.4033 38.25 27 38.25C27.5968 38.25 28.1691 38.013 28.591 37.591C29.013 37.169 29.25 36.5967 29.25 36V33.75C29.25 33.1533 29.013 32.581 28.591 32.159C28.1691 31.7371 27.5968 31.5 27 31.5ZM41.445 13.995C40.0702 10.836 37.6976 8.21493 34.6907 6.53339C31.6837 4.85186 28.2084 4.20263 24.7972 4.6852C21.386 5.16778 18.2271 6.75553 15.8046 9.20515C13.3821 11.6548 11.8296 14.8311 11.385 18.2475C9.4217 18.7222 7.67513 19.8435 6.4263 21.4311C5.17748 23.0186 4.49899 24.9801 4.50001 27C4.496 28.2745 4.76269 29.5352 5.28246 30.6989C5.80222 31.8625 6.56319 32.9025 7.51501 33.75C7.73407 33.9604 7.99345 34.1243 8.27753 34.2318C8.56162 34.3392 8.86452 34.3881 9.16798 34.3753C9.47145 34.3626 9.76919 34.2885 10.0433 34.1576C10.3174 34.0268 10.5621 33.8417 10.7627 33.6137C10.9634 33.3857 11.1158 33.1194 11.2108 32.8309C11.3058 32.5424 11.3414 32.2377 11.3154 31.9351C11.2895 31.6324 11.2025 31.3382 11.0598 31.0701C10.9171 30.802 10.7216 30.5655 10.485 30.375C10.0132 29.9492 9.63692 29.4283 9.38097 28.8466C9.12501 28.2649 8.99518 27.6355 9.00001 27C9.00001 25.8065 9.47412 24.6619 10.318 23.818C11.1619 22.9741 12.3065 22.5 13.5 22.5C14.0968 22.5 14.669 22.263 15.091 21.841C15.513 21.419 15.75 20.8467 15.75 20.25C15.7558 17.5889 16.7047 15.016 18.4281 12.9883C20.1516 10.9607 22.538 9.60965 25.1635 9.17522C27.7889 8.7408 30.4833 9.25112 32.768 10.6155C35.0528 11.9799 36.7799 14.1101 37.6425 16.6275C37.7711 17.0141 38.0023 17.3586 38.3114 17.6241C38.6205 17.8896 38.9959 18.0662 39.3975 18.135C40.9594 18.4044 42.3766 19.2149 43.401 20.4243C44.4253 21.6338 44.9914 23.1651 45 24.75C45.0344 26.4067 44.4394 28.0147 43.335 29.25C42.9758 29.6973 42.801 30.265 42.8464 30.8369C42.8918 31.4087 43.1539 31.9417 43.5792 32.3268C44.0045 32.7118 44.5608 32.9199 45.1344 32.9084C45.708 32.8969 46.2555 32.6668 46.665 32.265C47.9043 30.8488 48.7686 29.1442 49.1786 27.3075C49.5886 25.4708 49.5313 23.5606 49.0119 21.7517C48.4926 19.9429 47.5277 18.2932 46.2057 16.9538C44.8838 15.6144 43.2469 14.628 41.445 14.085V13.995ZM36 24.75C35.4033 24.75 34.831 24.9871 34.409 25.409C33.9871 25.831 33.75 26.4033 33.75 27V29.25C33.75 29.8467 33.9871 30.419 34.409 30.841C34.831 31.263 35.4033 31.5 36 31.5C36.5968 31.5 37.1691 31.263 37.591 30.841C38.013 30.419 38.25 29.8467 38.25 29.25V27C38.25 26.4033 38.013 25.831 37.591 25.409C37.1691 24.9871 36.5968 24.75 36 24.75ZM36 36C35.4033 36 34.831 36.2371 34.409 36.659C33.9871 37.081 33.75 37.6533 33.75 38.25V40.5C33.75 41.0967 33.9871 41.669 34.409 42.091C34.831 42.513 35.4033 42.75 36 42.75C36.5968 42.75 37.1691 42.513 37.591 42.091C38.013 41.669 38.25 41.0967 38.25 40.5V38.25C38.25 37.6533 38.013 37.081 37.591 36.659C37.1691 36.2371 36.5968 36 36 36ZM27 20.25C26.4033 20.25 25.831 20.4871 25.409 20.909C24.9871 21.331 24.75 21.9033 24.75 22.5V24.75C24.75 25.3467 24.9871 25.919 25.409 26.341C25.831 26.763 26.4033 27 27 27C27.5968 27 28.1691 26.763 28.591 26.341C29.013 25.919 29.25 25.3467 29.25 24.75V22.5C29.25 21.9033 29.013 21.331 28.591 20.909C28.1691 20.4871 27.5968 20.25 27 20.25Z" fill="black"/>
</svg>
