<svg width="32" height="32" viewBox="0 0 32 32" fill="none" xmlns="http://www.w3.org/2000/svg">
<path d="M19.32 14.48C19.7665 13.8653 20.0344 13.1391 20.094 12.3816C20.1535 11.6242 20.0025 10.865 19.6575 10.188C19.3126 9.51105 18.7871 8.94266 18.1393 8.54568C17.4914 8.14871 16.7465 7.9386 15.9867 7.9386C15.2269 7.9386 14.4819 8.14871 13.834 8.54568C13.1862 8.94266 12.6607 9.51105 12.3158 10.188C11.9708 10.865 11.8198 11.6242 11.8793 12.3816C11.9389 13.1391 12.2068 13.8653 12.6533 14.48C12.0869 14.841 11.5826 15.2913 11.16 15.8134C11.0497 15.9561 10.9686 16.1191 10.9213 16.2931C10.874 16.4672 10.8614 16.6489 10.8843 16.8278C10.9072 17.0067 10.9651 17.1793 11.0548 17.3359C11.1444 17.4924 11.264 17.6297 11.4067 17.74C11.5494 17.8503 11.7124 17.9315 11.8865 17.9788C12.0605 18.0261 12.2422 18.0386 12.4211 18.0157C12.6 17.9928 12.7726 17.9349 12.9292 17.8453C13.0857 17.7556 13.223 17.6361 13.3333 17.4934C13.659 17.0795 14.074 16.7445 14.5473 16.5136C15.0206 16.2827 15.54 16.1619 16.0667 16.16C16.5933 16.1619 17.1127 16.2827 17.586 16.5136C18.0594 16.7445 18.4744 17.0795 18.8 17.4934C18.9255 17.6481 19.084 17.7727 19.264 17.858C19.444 17.9434 19.6408 17.9874 19.84 17.9867C20.0899 17.9855 20.3345 17.9142 20.5459 17.7807C20.7572 17.6472 20.9268 17.457 21.0352 17.2318C21.1436 17.0066 21.1866 16.7554 21.1591 16.507C21.1317 16.2585 21.035 16.0228 20.88 15.8267C20.4384 15.2943 19.9112 14.8391 19.32 14.48ZM16 13.5067C15.7149 13.5065 15.4361 13.4224 15.1984 13.265C14.9607 13.1075 14.7745 12.8836 14.6631 12.6211C14.5517 12.3587 14.52 12.0692 14.5719 11.7889C14.6238 11.5085 14.757 11.2496 14.955 11.0444C15.1529 10.8392 15.4069 10.6967 15.6852 10.6348C15.9635 10.5728 16.2539 10.5941 16.5202 10.6959C16.7865 10.7978 17.017 10.9758 17.1829 11.2076C17.3488 11.4395 17.4429 11.7151 17.4533 12C17.4605 12.1953 17.4282 12.3901 17.3584 12.5726C17.2886 12.7551 17.1827 12.9217 17.047 13.0623C16.9113 13.203 16.7487 13.3148 16.5688 13.3912C16.3889 13.4675 16.1954 13.5068 16 13.5067ZM27.28 12.84C27.0928 10.8919 26.4043 9.02547 25.2816 7.42245C24.1588 5.81943 22.6401 4.53447 20.8733 3.69268C19.1065 2.8509 17.1518 2.48099 15.1996 2.61896C13.2474 2.75694 11.3642 3.39811 9.73333 4.48003C8.33226 5.41689 7.15607 6.65242 6.28925 8.09788C5.42244 9.54334 4.88652 11.1628 4.71999 12.84C4.55664 14.5062 4.76623 16.1879 5.33355 17.7631C5.90088 19.3382 6.81172 20.7673 7.99999 21.9467L15.0667 29.0267C15.1906 29.1517 15.3381 29.2509 15.5006 29.3185C15.663 29.3862 15.8373 29.4211 16.0133 29.4211C16.1893 29.4211 16.3636 29.3862 16.5261 29.3185C16.6886 29.2509 16.836 29.1517 16.96 29.0267L24 21.9467C25.1883 20.7673 26.0991 19.3382 26.6664 17.7631C27.2338 16.1879 27.4433 14.5062 27.28 12.84ZM22.1333 20.0667L16 26.2L9.86666 20.0667C8.96278 19.1628 8.2704 18.0698 7.83928 16.8664C7.40817 15.6629 7.24904 14.379 7.37333 13.1067C7.49842 11.8148 7.90901 10.5669 8.57542 9.45315C9.24183 8.33939 10.1474 7.38763 11.2267 6.66669C12.6413 5.72701 14.3017 5.22575 16 5.22575C17.6983 5.22575 19.3587 5.72701 20.7733 6.66669C21.8493 7.38485 22.7529 8.3324 23.4191 9.44128C24.0854 10.5502 24.4978 11.7928 24.6267 13.08C24.755 14.3566 24.5979 15.6457 24.1666 16.8541C23.7354 18.0625 23.0409 19.1598 22.1333 20.0667Z" fill="black"/>
</svg>
