<svg width="32" height="32" viewBox="0 0 32 32" fill="none" xmlns="http://www.w3.org/2000/svg">
<path d="M4.66668 12C4.93039 12 5.18817 11.9218 5.40744 11.7753C5.6267 11.6288 5.7976 11.4205 5.89852 11.1769C5.99943 10.9333 6.02584 10.6652 5.97439 10.4065C5.92294 10.1479 5.79596 9.91033 5.60949 9.72386C5.42302 9.53739 5.18544 9.4104 4.9268 9.35895C4.66816 9.30751 4.40007 9.33391 4.15643 9.43483C3.9128 9.53574 3.70456 9.70664 3.55805 9.92591C3.41154 10.1452 3.33334 10.403 3.33334 10.6667C3.33334 11.0203 3.47382 11.3594 3.72387 11.6095C3.97392 11.8595 4.31305 12 4.66668 12ZM10 12H19.3333C20.3942 12 21.4116 11.5786 22.1618 10.8284C22.9119 10.0783 23.3333 9.06087 23.3333 8C23.3333 6.93913 22.9119 5.92172 22.1618 5.17157C21.4116 4.42143 20.3942 4 19.3333 4C18.6319 4.0029 17.9431 4.18659 17.3333 4.53333C17.1806 4.62044 17.0465 4.73691 16.9389 4.87604C16.8314 5.01517 16.7524 5.17421 16.7065 5.344C16.6607 5.51378 16.6488 5.69096 16.6718 5.86533C16.6947 6.03971 16.7519 6.20782 16.84 6.36C16.9282 6.51167 17.0455 6.64444 17.1851 6.75069C17.3248 6.85694 17.484 6.93459 17.6537 6.97918C17.8234 7.02378 18.0002 7.03444 18.1741 7.01055C18.3479 6.98667 18.5153 6.92871 18.6667 6.84C18.8718 6.72963 19.1004 6.67019 19.3333 6.66667C19.687 6.66667 20.0261 6.80714 20.2762 7.05719C20.5262 7.30724 20.6667 7.64638 20.6667 8C20.6667 8.35362 20.5262 8.69276 20.2762 8.94281C20.0261 9.19286 19.687 9.33333 19.3333 9.33333H10C9.64639 9.33333 9.30725 9.47381 9.0572 9.72386C8.80715 9.97391 8.66668 10.313 8.66668 10.6667C8.66668 11.0203 8.80715 11.3594 9.0572 11.6095C9.30725 11.8595 9.64639 12 10 12ZM4.66668 17.3333H14C14.3536 17.3333 14.6928 17.1929 14.9428 16.9428C15.1929 16.6928 15.3333 16.3536 15.3333 16C15.3333 15.6464 15.1929 15.3072 14.9428 15.0572C14.6928 14.8071 14.3536 14.6667 14 14.6667H4.66668C4.31305 14.6667 3.97392 14.8071 3.72387 15.0572C3.47382 15.3072 3.33334 15.6464 3.33334 16C3.33334 16.3536 3.47382 16.6928 3.72387 16.9428C3.97392 17.1929 4.31305 17.3333 4.66668 17.3333ZM27.3333 12C27.597 12 27.8548 11.9218 28.0741 11.7753C28.2934 11.6288 28.4643 11.4205 28.5652 11.1769C28.6661 10.9333 28.6925 10.6652 28.6411 10.4065C28.5896 10.1479 28.4626 9.91033 28.2762 9.72386C28.0897 9.53739 27.8521 9.4104 27.5935 9.35895C27.3348 9.30751 27.0667 9.33391 26.8231 9.43483C26.5795 9.53574 26.3712 9.70664 26.2247 9.92591C26.0782 10.1452 26 10.403 26 10.6667C26 11.0203 26.1405 11.3594 26.3905 11.6095C26.6406 11.8595 26.9797 12 27.3333 12ZM24.6667 14.6667H19.3333C18.9797 14.6667 18.6406 14.8071 18.3905 15.0572C18.1405 15.3072 18 15.6464 18 16C18 16.3536 18.1405 16.6928 18.3905 16.9428C18.6406 17.1929 18.9797 17.3333 19.3333 17.3333H24.6667C25.0203 17.3333 25.3594 17.4738 25.6095 17.7239C25.8595 17.9739 26 18.313 26 18.6667C26 19.0203 25.8595 19.3594 25.6095 19.6095C25.3594 19.8595 25.0203 20 24.6667 20C24.3131 20 23.9739 20.1405 23.7239 20.3905C23.4738 20.6406 23.3333 20.9797 23.3333 21.3333C23.3333 21.687 23.4738 22.0261 23.7239 22.2761C23.9739 22.5262 24.3131 22.6667 24.6667 22.6667C25.7275 22.6667 26.745 22.2452 27.4951 21.4951C28.2452 20.7449 28.6667 19.7275 28.6667 18.6667C28.6667 17.6058 28.2452 16.5884 27.4951 15.8382C26.745 15.0881 25.7275 14.6667 24.6667 14.6667ZM16.6667 20H11.3333C10.9797 20 10.6406 20.1405 10.3905 20.3905C10.1405 20.6406 10 20.9797 10 21.3333C10 21.687 10.1405 22.0261 10.3905 22.2761C10.6406 22.5262 10.9797 22.6667 11.3333 22.6667H16.6667C17.0203 22.6667 17.3594 22.8071 17.6095 23.0572C17.8595 23.3072 18 23.6464 18 24C18 24.3536 17.8595 24.6928 17.6095 24.9428C17.3594 25.1929 17.0203 25.3333 16.6667 25.3333C16.4338 25.3298 16.2051 25.2704 16 25.16C15.8483 25.0635 15.6785 24.9988 15.5011 24.9696C15.3237 24.9404 15.1422 24.9474 14.9675 24.9902C14.7928 25.033 14.6286 25.1106 14.4848 25.2185C14.3409 25.3264 14.2203 25.4623 14.1304 25.618C14.0404 25.7737 13.9828 25.9459 13.9611 26.1244C13.9394 26.303 13.9541 26.484 14.0042 26.6567C14.0543 26.8294 14.1388 26.9902 14.2527 27.1294C14.3665 27.2686 14.5073 27.3833 14.6667 27.4667C15.2764 27.8134 15.9652 27.9971 16.6667 28C17.7275 28 18.745 27.5786 19.4951 26.8284C20.2452 26.0783 20.6667 25.0609 20.6667 24C20.6667 22.9391 20.2452 21.9217 19.4951 21.1716C18.745 20.4214 17.7275 20 16.6667 20ZM6.00001 20H4.66668C4.31305 20 3.97392 20.1405 3.72387 20.3905C3.47382 20.6406 3.33334 20.9797 3.33334 21.3333C3.33334 21.687 3.47382 22.0261 3.72387 22.2761C3.97392 22.5262 4.31305 22.6667 4.66668 22.6667H6.00001C6.35363 22.6667 6.69277 22.5262 6.94282 22.2761C7.19287 22.0261 7.33334 21.687 7.33334 21.3333C7.33334 20.9797 7.19287 20.6406 6.94282 20.3905C6.69277 20.1405 6.35363 20 6.00001 20Z" fill="black"/>
</svg>
