<svg width="54" height="54" viewBox="0 0 54 54" fill="none" xmlns="http://www.w3.org/2000/svg">
<path d="M44.7526 21.4879C44.5656 21.1168 44.2795 20.8048 43.9261 20.5864C43.5726 20.368 43.1656 20.2517 42.7501 20.2504H31.5001V6.7504C31.5242 6.25694 31.3853 5.76925 31.1047 5.3626C30.8241 4.95596 30.4175 4.65297 29.9476 4.5004C29.4958 4.35177 29.0086 4.3501 28.5558 4.49563C28.1031 4.64116 27.7081 4.9264 27.4276 5.3104L9.42755 30.0604C9.20203 30.3864 9.06661 30.7661 9.035 31.1612C9.00339 31.5563 9.07672 31.9527 9.24755 32.3104C9.40488 32.7193 9.67818 33.0734 10.0339 33.3292C10.3896 33.585 10.8123 33.7314 11.2501 33.7504H22.5001V47.2504C22.5004 47.7249 22.6507 48.1871 22.9296 48.571C23.2084 48.9549 23.6015 49.2408 24.0526 49.3879C24.2786 49.458 24.5134 49.4958 24.7501 49.5004C25.1051 49.5013 25.4553 49.4182 25.772 49.2579C26.0888 49.0976 26.3631 48.8645 26.5726 48.5779L44.5726 23.8279C44.815 23.4922 44.9601 23.0961 44.9918 22.6832C45.0236 22.2704 44.9408 21.8567 44.7526 21.4879V21.4879ZM27.0001 40.3204V31.5004C27.0001 30.9037 26.763 30.3314 26.341 29.9094C25.9191 29.4875 25.3468 29.2504 24.7501 29.2504H15.7501L27.0001 13.6804V22.5004C27.0001 23.0971 27.2371 23.6694 27.6591 24.0914C28.081 24.5133 28.6533 24.7504 29.2501 24.7504H38.2501L27.0001 40.3204Z" fill="#FF5E57"/>
</svg>
