<svg width="54" height="54" viewBox="0 0 54 54" fill="none" xmlns="http://www.w3.org/2000/svg">
<path d="M26.055 37.125H23.22L25.155 33.75C25.3178 33.4939 25.4271 33.2075 25.4763 32.9081C25.5256 32.6087 25.5138 32.3024 25.4416 32.0076C25.3694 31.7129 25.2383 31.4358 25.0562 31.193C24.8742 30.9502 24.6449 30.7468 24.3822 30.5949C24.1194 30.4431 23.8287 30.3459 23.5275 30.3093C23.2262 30.2728 22.9207 30.2975 22.6293 30.382C22.3378 30.4666 22.0665 30.6092 21.8316 30.8013C21.5967 30.9935 21.4031 31.2311 21.2625 31.5L17.37 38.25C17.1731 38.591 17.0691 38.9778 17.0685 39.3716C17.0679 39.7654 17.1707 40.1525 17.3666 40.4942C17.5624 40.8358 17.8446 41.1201 18.1847 41.3185C18.5249 41.5169 18.9112 41.6226 19.305 41.625H22.1625L20.25 45C19.9516 45.5192 19.8717 46.1356 20.0278 46.7137C20.1839 47.2917 20.5633 47.7841 21.0825 48.0825C21.6016 48.3809 22.2181 48.4608 22.7961 48.3047C23.3742 48.1485 23.8666 47.7692 24.165 47.25L28.0575 40.5C28.255 40.158 28.3589 39.77 28.3589 39.375C28.3589 38.98 28.255 38.592 28.0575 38.25C27.8555 37.8999 27.563 37.6107 27.2106 37.4127C26.8582 37.2148 26.459 37.1154 26.055 37.125V37.125ZM47.25 16.875H45.45C45.2173 15.8654 44.8222 14.9003 44.28 14.0175L45.54 12.7575C45.9086 12.3271 46.1012 11.7734 46.0793 11.2071C46.0575 10.6409 45.8227 10.1037 45.422 9.70298C45.0213 9.30227 44.4841 9.06752 43.9178 9.04565C43.3516 9.02378 42.7979 9.21639 42.3675 9.585L41.1075 10.845C40.2246 10.3028 39.2596 9.90763 38.25 9.675V7.875C38.25 7.27826 38.0129 6.70597 37.591 6.28401C37.169 5.86205 36.5967 5.625 36 5.625C35.4032 5.625 34.8309 5.86205 34.409 6.28401C33.987 6.70597 33.75 7.27826 33.75 7.875V9.675C32.7404 9.90763 31.7753 10.3028 30.8925 10.845L29.6325 9.585C29.202 9.21639 28.6484 9.02378 28.0821 9.04565C27.5158 9.06752 26.9787 9.30227 26.578 9.70298C26.1772 10.1037 25.9425 10.6409 25.9206 11.2071C25.8987 11.7734 26.0914 12.3271 26.46 12.7575L27.72 14.04C27.5175 14.3775 27.36 14.76 27.18 15.12C26.0231 14.7934 24.827 14.6269 23.625 14.625C20.3824 14.6232 17.2475 15.7885 14.7934 17.9079C12.3394 20.0273 10.7301 22.9592 10.26 26.1675C8.66632 26.6039 7.25094 27.5319 6.2153 28.8194C5.17966 30.1069 4.57654 31.6882 4.49179 33.3384C4.40703 34.9885 4.84497 36.6234 5.74326 38.0102C6.64155 39.397 7.95441 40.4651 9.49497 41.0625C9.77455 41.1953 10.0785 41.2691 10.3879 41.2791C10.6973 41.2891 11.0054 41.2351 11.293 41.1206C11.5805 41.0061 11.8414 40.8335 12.0592 40.6136C12.277 40.3936 12.4471 40.1311 12.5589 39.8425C12.6706 39.5538 12.7216 39.2452 12.7086 38.9359C12.6956 38.6267 12.619 38.3234 12.4835 38.0451C12.3479 37.7668 12.1565 37.5195 11.921 37.3186C11.6855 37.1177 11.4111 36.9675 11.115 36.8775C10.3901 36.5835 9.78989 36.0468 9.41692 35.3592C9.04394 34.6717 8.92138 33.8759 9.07019 33.108C9.21899 32.34 9.62992 31.6476 10.2327 31.1491C10.8355 30.6506 11.5928 30.377 12.375 30.375C12.9717 30.375 13.544 30.1379 13.966 29.716C14.3879 29.294 14.625 28.7217 14.625 28.125C14.6346 26.0003 15.3956 23.9476 16.7734 22.3301C18.1511 20.7126 20.0566 19.6346 22.1527 19.2871C24.2488 18.9395 26.4002 19.3448 28.2263 20.4311C30.0523 21.5173 31.4351 23.2146 32.13 25.2225C32.2586 25.6091 32.4898 25.9536 32.7989 26.2191C33.108 26.4846 33.4834 26.6612 33.885 26.73C35.0491 26.9361 36.1095 27.5297 36.8938 28.4144C37.6781 29.299 38.1404 30.4228 38.2055 31.6033C38.2707 32.7838 37.9349 33.9517 37.2527 34.9173C36.5705 35.8829 35.5819 36.5895 34.4475 36.9225C33.8507 37.0031 33.3104 37.3174 32.9454 37.7963C32.5805 38.2752 32.4207 38.8795 32.5012 39.4763C32.5818 40.073 32.8961 40.6133 33.375 40.9783C33.8539 41.3433 34.4582 41.5031 35.055 41.4225C35.2561 41.4553 35.4613 41.4553 35.6625 41.4225C36.9688 41.0598 38.1843 40.4265 39.2302 39.5639C40.276 38.7012 41.1289 37.6284 41.7335 36.4149C42.3381 35.2014 42.681 33.8744 42.7398 32.52C42.7986 31.1655 42.5721 29.8138 42.075 28.5525L42.3675 28.845C42.7866 29.2607 43.3522 29.495 43.9425 29.4975C44.2386 29.4992 44.5321 29.4425 44.8063 29.3305C45.0804 29.2185 45.3297 29.0535 45.54 28.845C45.959 28.4234 46.1943 27.8532 46.1943 27.2587C46.1943 26.6643 45.959 26.0941 45.54 25.6725L44.28 24.4125C44.8407 23.4743 45.2364 22.4469 45.45 21.375H47.25C47.8467 21.375 48.419 21.1379 48.841 20.716C49.2629 20.294 49.5 19.7217 49.5 19.125C49.5 18.5283 49.2629 17.956 48.841 17.534C48.419 17.1121 47.8467 16.875 47.25 16.875ZM39.735 22.8375C39.3372 23.2152 38.8814 23.5267 38.385 23.76C37.6548 23.2273 36.8515 22.8029 36 22.5C34.9662 20.2427 33.3414 18.3069 31.2975 16.8975C31.5483 16.3163 31.8985 15.7833 32.3325 15.3225V15.3225C33.3429 14.3879 34.6686 13.8688 36.045 13.8688C37.4213 13.8688 38.7471 14.3879 39.7575 15.3225V15.3225C40.7224 16.3174 41.2621 17.649 41.2621 19.035C41.2621 20.421 40.7224 21.7526 39.7575 22.7475L39.735 22.8375Z" fill="#FF5E57"/>
</svg>
